<svg width="99" height="56" viewBox="0 0 99 56" fill="none" xmlns="http://www.w3.org/2000/svg">
<path d="M48.8252 0.805553C48.3536 1.15921 48 2.92751 48 4.6958C48 7.76084 47.7642 7.87872 39.748 8.70393C25.248 10.0007 12.2805 16.2486 8.50812 23.6755C7.21137 26.0332 5.79674 27.0942 3.79267 27.0942C2.14227 27.0942 0.84552 27.5657 0.84552 28.273C0.84552 28.8625 2.49593 29.4519 4.38211 29.4519C6.73983 29.4519 7.91869 30.0413 7.91869 31.2202C7.91869 33.5779 13.4593 38.5291 19.7073 41.7121C25.1301 44.5413 32.439 46.4275 42.4593 47.8421C47.6463 48.5495 48 48.7852 48 51.9682C48 54.208 48.5894 55.3869 49.7683 55.3869C50.9471 55.3869 51.5366 54.208 51.5366 51.9682C51.5366 48.6673 51.7724 48.5495 58.6097 47.7243C73.935 45.956 87.4919 39.8259 91.0285 32.9885C92.3252 30.5129 93.7398 29.4519 95.7439 29.4519C97.3943 29.4519 98.691 28.8625 98.691 28.273C98.691 27.5657 97.3943 27.0942 95.8618 27.0942C93.8577 27.0942 92.4431 26.0332 91.3821 23.9112C87.6097 16.2486 74.1707 9.7649 59.5528 8.58604L51.5366 7.87872V3.98848C51.5366 0.216122 50.4756 -0.962738 48.8252 0.805553ZM33.9715 16.1308C32.0854 18.6064 30.3171 21.9072 30.0813 23.5576C29.7276 26.3869 29.374 26.5047 20.6504 26.8584C10.1585 27.2121 9.21544 26.1511 14.874 20.7283C18.1748 17.5454 31.1423 12.0047 35.3862 11.8869C37.1545 11.769 36.9187 12.4763 33.9715 16.1308ZM48 19.4316V27.0942H40.9268C32.7927 27.0942 31.378 25.5617 34.4431 20.3747C36.6829 16.4844 43.0488 11.769 45.878 11.769C47.6463 11.769 48 12.9478 48 19.4316ZM58.8455 13.773C62.9715 16.2486 67.3333 22.9682 66.3902 25.3259C65.9187 26.6226 63.7967 27.0942 58.6097 27.0942H51.5366V19.4316C51.5366 10.8259 52.4797 10.1186 58.8455 13.773ZM73.4634 14.5982C81.2439 17.4275 88.0813 22.6145 88.0813 25.5617C88.0813 26.7405 85.7236 27.0942 79.3577 27.0942H70.6341L69.8089 23.4397C69.3374 21.4356 67.4512 18.0169 65.4471 15.7771C61.0854 10.8259 62.5 10.708 73.4634 14.5982ZM30.4349 33.46C31.0244 35.3462 32.9106 38.4112 34.6789 40.4153L37.9797 43.9519L32.6748 43.1267C25.8374 42.0657 18.1748 38.647 14.4024 34.8747C9.5691 30.0413 10.5122 29.334 20.5325 29.6877C29.374 30.0413 29.6097 30.1592 30.4349 33.46ZM48 37.1145V44.7771L43.6382 43.0088C38.2154 40.6511 36.4471 39.2365 34.3252 35.2283C31.6138 29.9234 32.0854 29.4519 40.3374 29.4519H48V37.1145ZM66.8618 30.6308C66.8618 32.7527 63.6789 38.1755 61.439 40.1795C60.1423 41.2405 57.4309 42.6551 55.4268 43.3625L51.5366 44.6592V36.9966V29.4519H59.1992C63.7967 29.4519 66.8618 29.9234 66.8618 30.6308ZM88.0813 30.6308C88.0813 34.7568 76.4106 41.5942 66.9797 43.1267L61.9106 43.9519L64.9756 40.6511C66.626 38.8828 68.5122 35.6999 69.2195 33.46L70.6341 29.4519H79.3577C84.6626 29.4519 88.0813 29.9234 88.0813 30.6308Z" fill="#E3272A"/>
</svg>
