<svg width="196" height="129" viewBox="0 0 196 129" fill="none" xmlns="http://www.w3.org/2000/svg">
<path d="M145.825 0.805553C145.354 1.15921 145 2.9275 145 4.6958C145 7.76084 144.764 7.87872 136.748 8.70393C122.248 10.0007 109.28 16.2486 105.508 23.6755C104.211 26.0332 102.797 27.0942 100.793 27.0942C99.1423 27.0942 97.8455 27.5657 97.8455 28.273C97.8455 28.8625 99.4959 29.4519 101.382 29.4519C103.74 29.4519 104.919 30.0413 104.919 31.2202C104.919 33.5779 110.459 38.5291 116.707 41.7121C122.13 44.5413 129.439 46.4275 139.459 47.8421C144.646 48.5495 145 48.7852 145 51.9682C145 54.208 145.589 55.3869 146.768 55.3869C147.947 55.3869 148.537 54.208 148.537 51.9682C148.537 48.6673 148.772 48.5495 155.61 47.7243C170.935 45.956 184.492 39.8259 188.028 32.9885C189.325 30.5129 190.74 29.4519 192.744 29.4519C194.394 29.4519 195.691 28.8625 195.691 28.273C195.691 27.5657 194.394 27.0942 192.862 27.0942C190.858 27.0942 189.443 26.0332 188.382 23.9112C184.61 16.2486 171.171 9.7649 156.553 8.58604L148.537 7.87872V3.98848C148.537 0.216122 147.476 -0.962739 145.825 0.805553ZM130.972 16.1308C129.085 18.6064 127.317 21.9072 127.081 23.5576C126.728 26.3869 126.374 26.5047 117.65 26.8584C107.159 27.2121 106.215 26.1511 111.874 20.7283C115.175 17.5454 128.142 12.0047 132.386 11.8869C134.154 11.769 133.919 12.4763 130.972 16.1308ZM145 19.4316V27.0942H137.927C129.793 27.0942 128.378 25.5617 131.443 20.3747C133.683 16.4844 140.049 11.769 142.878 11.769C144.646 11.769 145 12.9478 145 19.4316ZM155.846 13.773C159.972 16.2486 164.333 22.9682 163.39 25.3259C162.919 26.6226 160.797 27.0942 155.61 27.0942H148.537V19.4316C148.537 10.8259 149.48 10.1186 155.846 13.773ZM170.463 14.5982C178.244 17.4275 185.081 22.6145 185.081 25.5617C185.081 26.7405 182.724 27.0942 176.358 27.0942H167.634L166.809 23.4397C166.337 21.4356 164.451 18.0169 162.447 15.7771C158.085 10.8259 159.5 10.708 170.463 14.5982ZM127.435 33.46C128.024 35.3462 129.911 38.4112 131.679 40.4153L134.98 43.9519L129.675 43.1267C122.837 42.0657 115.175 38.647 111.402 34.8747C106.569 30.0413 107.512 29.334 117.533 29.6877C126.374 30.0413 126.61 30.1592 127.435 33.46ZM145 37.1145V44.7771L140.638 43.0088C135.215 40.6511 133.447 39.2364 131.325 35.2283C128.614 29.9234 129.085 29.4519 137.337 29.4519H145V37.1145ZM163.862 30.6308C163.862 32.7527 160.679 38.1755 158.439 40.1795C157.142 41.2405 154.431 42.6551 152.427 43.3625L148.537 44.6592V36.9966V29.4519H156.199C160.797 29.4519 163.862 29.9234 163.862 30.6308ZM185.081 30.6308C185.081 34.7568 173.411 41.5942 163.98 43.1267L158.911 43.9519L161.976 40.6511C163.626 38.8828 165.512 35.6999 166.22 33.46L167.634 29.4519H176.358C181.663 29.4519 185.081 29.9234 185.081 30.6308Z" fill="#E3272A"/>
<path d="M0 82.3828V109.614H4.71545H9.43089V101.127V92.521L14.9715 99.0047C18.0366 102.423 21.4553 106.314 22.3984 107.61C23.813 109.261 25.4634 109.732 29.9431 109.379L35.7195 109.025L27.8211 100.655C23.5772 95.9397 20.0407 91.8137 20.0407 91.3421C20.0407 90.8706 21.4553 89.456 23.1057 88.0413C29.5894 82.9722 31.2398 73.3056 26.7602 65.4072C23.4593 59.395 17.0935 56.2121 7.42683 55.6226L0 55.1511V82.3828ZM16.622 64.8177C19.9228 66.7039 22.6341 72.7161 21.8089 76.4885C20.9837 80.6145 16.9756 84.3869 12.7317 85.4478L9.43089 86.273V74.956C9.43089 64.3462 9.54878 63.6389 11.9065 63.6389C13.2033 63.6389 15.3252 64.2283 16.622 64.8177Z" fill="white"/>
<path d="M163.272 67.8828C154.549 72.5982 150.894 78.6104 150.894 88.0413C150.894 95.7039 154.785 103.131 160.797 107.021C167.752 111.501 178.008 111.501 184.846 106.903C197.695 98.4153 198.285 80.143 185.906 70.2405C182.252 67.2934 180.248 66.586 174.118 66.3503C169.049 66.1145 165.748 66.586 163.272 67.8828ZM180.248 77.3137C181.78 78.3747 183.667 80.9682 184.61 83.208C188.972 93.6999 179.069 103.838 168.106 100.184C158.321 97.0007 157.378 80.3787 166.691 76.6064C170.817 74.956 177.301 75.3096 180.248 77.3137Z" fill="white"/>
<path d="M36.5447 67.7649C36.5447 68.1186 38.0773 71.1836 39.9634 74.6023C41.8496 77.9031 46.3293 86.5088 49.8659 93.582L56.4675 106.432L51.1626 116.923C48.3334 122.818 45.9756 127.769 45.9756 128.005C45.9756 128.241 48.2155 128.476 51.0447 128.476H55.996L71.0854 98.4153C79.3374 81.9112 86.0569 68.1186 86.0569 67.7649C86.0569 67.4112 83.4634 67.1755 80.1626 67.1755C76.9797 67.1755 74.2683 67.647 74.2683 68.2364C74.2683 68.708 71.439 75.3096 67.9025 82.6186L61.5366 96.0576L58.3537 88.9844C56.5854 85.0942 53.6382 78.6104 51.7521 74.4844L48.3334 67.1755H42.439C39.1382 67.1755 36.5447 67.4112 36.5447 67.7649Z" fill="white"/>
<path d="M95.252 69.8869C90.4187 73.7771 89.5935 77.5495 89.5935 94.4072V109.614H94.309H99.0244V95.1145C99.0244 82.5007 99.2602 80.2608 101.146 78.6104C104.211 75.8991 107.984 76.1348 110.106 79.1999C111.52 81.2039 111.992 85.0942 111.992 95.7039V109.614H116.707H121.423V95.7039C121.423 80.4966 122.72 76.6064 127.789 76.6064C133.329 76.6064 134.39 79.6714 134.39 95.2324V109.614H139.224H144.057L143.585 93.3462C143.35 83.5617 142.524 76.0169 141.581 74.1308C138.045 66.9397 125.667 64.6999 119.772 70.1226L116.589 73.0698L112.699 70.1226C107.512 66.2324 99.7317 66.1145 95.252 69.8869Z" fill="white"/>
</svg>
